<svg width="58" height="48" viewBox="0 0 58 48" fill="none" xmlns="http://www.w3.org/2000/svg">
<path d="M2.39028 44.6941C1.70155 44.4753 1.03714 44.3052 1.03714 43.7785C1.03714 43.341 1.44227 43.0412 2.03376 43.0412C2.62525 43.0412 3.10331 43.3896 3.23295 43.9973L4.04321 43.7704C3.84875 42.8953 3.0709 42.2876 2.07427 42.2876C0.980419 42.2876 0.178258 42.9682 0.178258 43.8271C0.178258 44.7832 1.02093 45.0911 1.64483 45.3099C2.39838 45.5692 3.22485 45.7069 3.22485 46.3956C3.22485 46.8656 2.82782 47.2302 2.1472 47.2302C1.37745 47.2302 0.915598 46.7198 0.818366 46.1445L0 46.3632C0.226874 47.3193 0.972316 47.9919 2.11479 47.9919C3.25726 47.9919 4.09993 47.3031 4.09993 46.3551C4.09993 45.3261 3.15192 44.9453 2.39028 44.6941ZM10.8413 44.0783C10.7036 44.2728 10.5415 44.4996 10.5334 44.4996H10.5253C10.5253 44.4996 10.3552 44.2728 10.2174 44.0783L9.00203 42.3929H8.05402L10.1121 45.2775V47.8865H10.9467V45.2775L13.0047 42.3929H12.0486L10.8413 44.0783ZM19.6732 44.6941C18.9845 44.4753 18.3201 44.3052 18.3201 43.7785C18.3201 43.341 18.7252 43.0412 19.3167 43.0412C19.9082 43.0412 20.3862 43.3896 20.5159 43.9973L21.3261 43.7704C21.1317 42.8953 20.3538 42.2876 19.3572 42.2876C18.2633 42.2876 17.4612 42.9682 17.4612 43.8271C17.4612 44.7832 18.3039 45.0911 18.9278 45.3099C19.6813 45.5692 20.5078 45.7069 20.5078 46.3956C20.5078 46.8656 20.1107 47.2302 19.4301 47.2302C18.6604 47.2302 18.1985 46.7198 18.1013 46.1445L17.291 46.3713C17.5179 47.3274 18.2633 48 19.4058 48C20.5483 48 21.391 47.3112 21.391 46.3632C21.391 45.3342 20.4429 44.9534 19.6813 44.7022M25.8555 43.2113H27.5733V47.8865H28.4078V43.2113H30.1418V42.3929H25.8555V43.2113ZM35.9595 45.4071H38.2039V44.6374H35.9595V43.2113H38.7792V42.3929H35.1168V47.8865H38.8278V47.0682H35.9595V45.4071ZM47.2059 44.4996C46.7684 45.2532 46.6955 45.4395 46.6874 45.4395H46.6793C46.6793 45.4395 46.5983 45.2532 46.1526 44.4996L44.9372 42.401H44.1432V47.8946H44.9777V45.7961C44.9777 44.7994 44.9372 43.8595 44.9453 43.8595C44.9534 43.8595 45.2775 44.4429 45.4072 44.6941L46.4443 46.5415H46.8818L47.919 44.6941C48.0567 44.4429 48.3808 43.8595 48.3889 43.8595H48.397C48.397 43.8595 48.3565 44.7994 48.3565 45.7961V47.8946H49.183V42.401H48.3889L47.1735 44.4996H47.2059ZM56.0783 44.6941C55.3896 44.4753 54.7171 44.3052 54.7171 43.7785C54.7171 43.341 55.1222 43.0412 55.7137 43.0412C56.3052 43.0412 56.7914 43.3896 56.9129 43.9973L57.7232 43.7704C57.5287 42.8953 56.7509 42.2876 55.7542 42.2876C54.6604 42.2876 53.8582 42.9682 53.8582 43.8271C53.8582 44.7832 54.7009 45.0911 55.3329 45.3099C56.0864 45.5692 56.9129 45.7069 56.9129 46.3956C56.9129 46.8656 56.5159 47.2302 55.8353 47.2302C55.0655 47.2302 54.6037 46.7198 54.4983 46.1445L53.6881 46.3713C53.9149 47.3274 54.6685 48 55.7947 48C56.9858 48 57.788 47.3112 57.788 46.3632C57.788 45.3342 56.84 44.9534 56.0702 44.7022M14.6009 16.2214H10.7522V22.8413H14.6009C16.9912 22.8413 18.1094 21.2451 18.1094 19.5516C18.1094 17.8582 16.9588 16.2295 14.6009 16.2295" fill="#00234A"/>
<path d="M54.4983 6.36865C53.6232 8.44293 51.63 9.9014 49.2883 9.9014C46.9467 9.9014 44.9534 8.44293 44.0783 6.36865H0V40.1242H57.8042V6.36865H54.4983ZM18.6036 34.4443L14.2849 26.8035H10.7441V34.4443H6.43349V12.0648H14.0419C19.3815 12.0648 22.582 15.0385 22.582 19.5435C22.582 22.6144 21.1236 24.8508 18.4821 25.9689L23.449 34.4443H18.6036ZM42.6604 34.4443H27.1033V12.0648H42.474V16.2215H31.422V20.9858H40.1486V24.8832H31.422V30.2876H42.6604V34.4443ZM51.3545 34.4443H47.0358V12.0648H51.3545V34.4443Z" fill="#00234A"/>
<path d="M47.676 0.445645L47.8461 0.364619L47.9677 0.348413L48.0892 0.413234L48.1378 0.542877L48.4295 0.632006L48.4781 0.46185L48.7293 0.356516L49.021 0.259284L49.3046 0.226874L49.5315 0.178258L49.653 0.145847L49.7664 0.0243079C49.6206 0.00810263 49.4667 0 49.3127 0C48.6807 0 48.0811 0.145847 47.5463 0.413234L47.5706 0.42944H47.6517L47.676 0.445645ZM50.285 6.62796L50.0257 6.42539L49.8961 6.1337L49.7827 6.09318L49.6287 5.94733V5.842L49.6854 5.64754L49.7502 5.46928L49.7989 5.33964L49.8394 5.2262V4.96692C49.8394 4.96692 49.7908 4.9102 49.7583 4.88589C49.7259 4.85348 49.7421 4.82917 49.6935 4.81297C49.6449 4.80486 49.6206 4.81297 49.6206 4.81297L49.5477 4.82917L49.491 4.90209H49.3775C49.3775 4.90209 49.3289 4.83727 49.2641 4.76435C49.2074 4.69143 49.2641 4.76435 49.1587 4.69143C49.0534 4.6185 49.0615 4.6185 49.0615 4.6185L48.9967 4.50507C48.9967 4.50507 48.9805 4.48076 48.859 4.45645C48.7374 4.43214 48.786 4.42404 48.786 4.42404H48.7374C48.7374 4.42404 48.5511 4.2944 48.4943 4.28629C48.4376 4.27819 48.389 4.28629 48.389 4.28629L48.3566 4.27009L48.1945 4.22958C48.1945 4.22958 48.154 4.18906 48.1135 4.18906C48.0649 4.18906 47.9839 4.05942 47.9839 4.05942C47.9839 4.05942 47.8461 4.0108 47.838 4.0027L47.8056 3.88927L47.7246 3.63808C47.7246 3.63808 47.603 3.46793 47.603 3.395C47.603 3.33018 47.522 3.36259 47.5544 3.34639C47.5868 3.32208 47.4977 3.25726 47.4977 3.25726L47.522 3.36259C47.522 3.36259 47.5058 3.46793 47.5625 3.52465C47.6193 3.58137 47.5625 3.58136 47.5625 3.58136H47.4977L47.4248 3.51654C47.4248 3.51654 47.3762 3.43552 47.3762 3.35449V3.20054C47.3762 3.20054 47.3357 3.13572 47.3195 3.11141C47.3032 3.09521 47.2951 2.89264 47.2951 2.89264L47.2546 2.80351L47.2303 2.62525L47.1817 2.4551L47.1655 2.34976L47.287 2.08238L47.3681 1.90412L47.4167 1.79068L47.4329 1.70966L47.4572 1.44227V1.31263L47.5139 1.2154L47.5301 1.15868L47.5544 1.03714L47.5139 0.9237H47.4653L47.1655 0.907495L47.2222 0.810264L47.125 0.672519C45.9987 1.41796 45.2452 2.72249 45.2452 4.20527C45.2452 6.52262 47.0683 8.40243 49.3208 8.40243C49.6368 8.40243 49.9447 8.36192 50.2445 8.289L50.2283 8.21607L50.3417 7.95679V7.81904L50.4228 7.43822L50.4957 7.18704L50.52 6.7576L50.4471 6.69278L50.285 6.61175V6.62796Z" fill="#FD433C"/>
<path d="M50.3173 0.129533L50.6171 0.323996L50.6657 0.486048L50.7386 0.89118L50.3578 0.761538L50.22 0.664306L49.904 0.372612L49.6529 0.234867L49.4746 0.30779L49.4584 0.380714L49.5718 0.453638L49.7744 0.542767L49.9202 0.688614L49.7015 0.712922L49.4908 0.631896L49.3287 0.802051L49.1829 0.85877L49.0127 0.988412L48.9641 1.19098L48.9884 1.30441L49.1505 1.38544L49.2477 1.5637L49.4422 1.62852L49.5232 1.5556L49.6042 1.31252L49.5637 0.923591L49.6691 0.956001L49.9202 1.04513L50.0418 1.02082L50.0661 1.03703L50.4712 1.2639L50.6009 1.42595L50.2443 1.61231H50.3092C50.3092 1.61231 50.5036 1.78247 50.5441 1.78247C50.5766 1.78247 50.4226 1.8635 50.4226 1.8635C50.4226 1.8635 50.3497 1.96883 50.2768 1.96073C50.2038 1.95263 50.2524 1.99314 50.1795 2.00124C50.0985 2.00124 49.977 2.15519 49.977 2.15519L49.9121 2.26053L49.7987 2.40637L49.7744 2.5036V2.64135L49.5799 2.67376L49.4989 2.86822L49.345 2.95735C49.345 2.95735 49.507 3.22474 49.5313 3.32197C49.5556 3.4192 49.4989 3.43541 49.4989 3.43541L49.4017 3.34628L49.1829 3.15182L49.1424 3.1194C49.1424 3.1194 48.9965 3.07889 48.9803 3.08699C48.9722 3.0951 48.8345 3.1113 48.8345 3.1113L48.4537 3.24905L48.3726 3.34628L48.3159 3.61367L48.4212 3.88105L48.5185 4.01069L48.5995 4.035L48.721 4.0188C48.721 4.0188 48.794 3.92967 48.8669 3.88105C48.9317 3.83244 48.9803 3.78382 48.9803 3.78382H49.0614C49.0857 3.78382 49.0695 3.88105 49.0695 3.88105C49.0695 3.88105 49.0208 3.97018 49.0289 4.04311C49.0371 4.10793 48.9155 4.20516 48.9155 4.20516C48.9155 4.20516 49.0127 4.22947 49.0938 4.20516C49.1667 4.17275 49.3936 4.20516 49.3936 4.20516L49.3531 4.3429L49.2963 4.59408L49.4584 4.69942H49.9121L49.977 4.67511L50.139 4.52116L50.3254 4.50496L50.4874 4.46444L50.5766 4.57788L50.69 4.49685L50.9412 4.47255L51.006 4.48875L51.3949 4.69132H51.4516L51.638 4.78044L51.8163 4.84527L51.8811 4.96681L51.9216 5.12076C51.9216 5.12076 52.0188 5.14506 52.0674 5.16127C52.1161 5.17747 52.2457 5.18558 52.2457 5.18558L52.3105 5.23419L52.4159 5.20178L52.5617 5.17747L52.6913 5.27471L52.8291 5.30712V5.60691L52.6022 5.8581L52.5455 6.34425L52.2862 6.63595L52.1485 6.74128L52.0107 6.82231L51.8325 7.114L51.6218 7.30847L51.5489 7.4219L51.3706 7.49483H51.3463L51.1437 7.63257L51.0546 7.75411L50.8845 7.92427L50.7791 8.0134L50.6738 8.15114C52.2781 7.58396 53.4287 6.02015 53.4287 4.18085C53.4287 2.21191 52.1161 0.558972 50.3416 0.105225" fill="#FD433C"/>
</svg>
