<svg width="24" height="24" viewBox="0 0 24 24" fill="none" xmlns="http://www.w3.org/2000/svg">
<g clip-path="url(#clip0_137_1161)">
<circle cx="12" cy="12" r="9" fill="black"/>
<path d="M12.0015 2C17.5252 2 22.0031 6.47784 22.0031 12.0016C22.0031 17.5253 17.5252 22.003 12.0015 22.003C6.47785 22.003 2 17.5253 2 12.0016C2 6.47784 6.47785 2 12.0015 2ZM8.46329 14.7849C8.20695 14.4595 7.73538 14.4036 7.41002 14.66C7.08466 14.9163 7.02872 15.3878 7.28507 15.7132C8.41567 17.1481 10.1389 18.0031 12.0015 18.0031C13.8617 18.0031 15.5828 17.1504 16.7136 15.7188C16.9703 15.3937 16.9149 14.922 16.5899 14.6653C16.2648 14.4086 15.7932 14.464 15.5365 14.7891C14.6872 15.8644 13.3977 16.5031 12.0015 16.5031C10.6034 16.5031 9.31243 15.8625 8.46329 14.7849ZM9.002 8.75219C8.31204 8.75219 7.75271 9.31151 7.75271 10.0015C7.75271 10.6915 8.31204 11.2508 9.002 11.2508C9.69197 11.2508 10.2513 10.6915 10.2513 10.0015C10.2513 9.31151 9.69197 8.75219 9.002 8.75219ZM15.002 8.75219C14.312 8.75219 13.7527 9.31151 13.7527 10.0015C13.7527 10.6915 14.312 11.2508 15.002 11.2508C15.6919 11.2508 16.2513 10.6915 16.2513 10.0015C16.2513 9.31151 15.6919 8.75219 15.002 8.75219Z" fill="#FFCC4D"/>
</g>
<defs>
<clipPath id="clip0_137_1161">
<rect width="24" height="24" fill="white"/>
</clipPath>
</defs>
</svg>
