<svg width="24" height="24" viewBox="0 0 24 24" fill="none" xmlns="http://www.w3.org/2000/svg">
<g clip-path="url(#clip0_137_1185)">
<circle cx="12" cy="12" r="9" fill="black"/>
<path d="M12 2C17.5228 2 22 6.47715 22 12C22 17.5229 17.5228 22 12 22C6.47715 22 2 17.5229 2 12C2 6.47715 6.47715 2 12 2ZM12 13.4934C10.3652 13.4934 8.83296 14.1512 7.71175 15.2962C7.42195 15.5921 7.42693 16.067 7.72287 16.3568C8.01882 16.6466 8.49367 16.6416 8.78348 16.3456C9.62535 15.4859 10.7726 14.9934 12 14.9934C13.2247 14.9934 14.3696 15.4837 15.2111 16.3401C15.5014 16.6356 15.9763 16.6397 16.2717 16.3494C16.5672 16.0591 16.5714 15.5843 16.281 15.2888C15.1604 14.1483 13.6312 13.4934 12 13.4934ZM8.21852 6.65972L8.1269 6.59684C7.81102 6.41274 7.39958 6.48281 7.16435 6.77685C6.92911 7.07089 6.95107 7.48768 7.20002 7.75544L7.28148 7.83102L8.53789 8.83496C8.07692 9.0188 7.75116 9.46927 7.75116 9.99582C7.75116 10.6858 8.31048 11.2451 9.00045 11.2451C9.69041 11.2451 10.2497 10.6858 10.2497 9.9954C10.4696 9.99534 10.6876 9.899 10.8357 9.71389C11.0709 9.41985 11.0489 9.00306 10.8 8.7353L10.7185 8.65972L8.21852 6.65972ZM16.8355 6.77672C16.6002 6.48273 16.1888 6.41275 15.873 6.59692L15.7813 6.65983L13.2825 8.65983L13.2011 8.73543C12.9522 9.00324 12.9303 9.42004 13.1656 9.71403C13.2891 9.86825 13.461 9.96083 13.6419 9.98648L13.7512 9.9938C13.7512 10.6858 14.3105 11.2451 15.0004 11.2451C15.6904 11.2451 16.2497 10.6858 16.2497 9.99582C16.2497 9.51322 15.9761 9.09453 15.5755 8.88646L15.4632 8.83504L16.7187 7.83092L16.8001 7.75531C17.049 7.4875 17.0708 7.07071 16.8355 6.77672Z" fill="#E4424D"/>
</g>
<defs>
<clipPath id="clip0_137_1185">
<rect width="24" height="24" fill="white"/>
</clipPath>
</defs>
</svg>
