<svg width="24" height="24" viewBox="0 0 24 24" fill="none" xmlns="http://www.w3.org/2000/svg">
<g clip-path="url(#clip0_137_1177)">
<circle cx="12" cy="12" r="9" fill="black"/>
<path d="M12.0016 2C17.5253 2 22.0031 6.47784 22.0031 12.0016C22.0031 17.5253 17.5253 22.003 12.0016 22.003C6.47785 22.003 2 17.5253 2 12.0016C2 6.47784 6.47785 2 12.0016 2ZM12.0016 13.4991C10.3667 13.4991 8.83452 14.1569 7.7133 15.3019C7.4235 15.5978 7.42848 16.0727 7.72443 16.3625C8.02038 16.6523 8.49522 16.6473 8.78503 16.3513C9.6269 15.4916 10.7742 14.9991 12.0016 14.9991C13.2263 14.9991 14.3712 15.4893 15.2127 16.3457C15.503 16.6412 15.9778 16.6454 16.2733 16.3551C16.5688 16.0647 16.5729 15.5899 16.2826 15.2944C15.1619 14.1539 13.6328 13.4991 12.0016 13.4991ZM9.002 8.75219C8.31204 8.75219 7.75271 9.31151 7.75271 10.0015C7.75271 10.6915 8.31204 11.2508 9.002 11.2508C9.69196 11.2508 10.2513 10.6915 10.2513 10.0015C10.2513 9.31151 9.69196 8.75219 9.002 8.75219ZM15.002 8.75219C14.312 8.75219 13.7527 9.31151 13.7527 10.0015C13.7527 10.6915 14.312 11.2508 15.002 11.2508C15.692 11.2508 16.2513 10.6915 16.2513 10.0015C16.2513 9.31151 15.692 8.75219 15.002 8.75219Z" fill="#FFCC4D"/>
</g>
<defs>
<clipPath id="clip0_137_1177">
<rect width="24" height="24" fill="white"/>
</clipPath>
</defs>
</svg>
