<svg width="24" height="24" viewBox="0 0 24 24" fill="none" xmlns="http://www.w3.org/2000/svg">
<rect width="24" height="24" fill="#E0E0E0"/>
<path d="M-1498 -1343C-1498 -1344.1 -1497.1 -1345 -1496 -1345H18404C18405.1 -1345 18406 -1344.1 18406 -1343V7851C18406 7852.1 18405.1 7853 18404 7853H-1496C-1497.1 7853 -1498 7852.1 -1498 7851V-1343Z" fill="#EAE2F0"/>
<path d="M-1496 -1344H18404V-1346H-1496V-1344ZM18405 -1343V7851H18407V-1343H18405ZM18404 7852H-1496V7854H18404V7852ZM-1497 7851V-1343H-1499V7851H-1497ZM-1496 7852C-1496.55 7852 -1497 7851.55 -1497 7851H-1499C-1499 7852.66 -1497.66 7854 -1496 7854V7852ZM18405 7851C18405 7851.55 18404.6 7852 18404 7852V7854C18405.7 7854 18407 7852.66 18407 7851H18405ZM18404 -1344C18404.6 -1344 18405 -1343.55 18405 -1343H18407C18407 -1344.66 18405.7 -1346 18404 -1346V-1344ZM-1496 -1346C-1497.66 -1346 -1499 -1344.66 -1499 -1343H-1497C-1497 -1343.55 -1496.55 -1344 -1496 -1344V-1346Z" fill="black" fill-opacity="0.1"/>
<rect x="-23.5" y="-215.5" width="71" height="503" rx="4.5" fill="white"/>
<rect x="-23.5" y="-215.5" width="71" height="503" rx="4.5" stroke="#9747FF" stroke-dasharray="10 5"/>
<g clip-path="url(#clip0_0_1)">
<circle cx="12" cy="12" r="9" fill="black"/>
<path d="M12 2C6.47715 2 2 6.47715 2 12C2 17.5228 6.47715 22 12 22C17.5228 22 22 17.5228 22 12C22 6.47715 17.5228 2 12 2ZM14.492 9.35982C14.4314 9.76957 14.05 10.0526 13.6403 9.99192C13.2305 9.93126 12.9475 9.54993 13.0082 9.14018C13.1696 8.0495 14.1313 7.25 15.2501 7.25C16.3689 7.25 17.3306 8.0495 17.492 9.14018C17.5527 9.54993 17.2697 9.93126 16.8599 9.99192C16.4502 10.0526 16.0688 9.76957 16.0082 9.35982C15.9604 9.03719 15.6586 8.75 15.2501 8.75C14.8416 8.75 14.5398 9.03719 14.492 9.35982ZM12 18C8.85757 18 6.76263 15.6375 6.5 12.75H17.5C17.2373 15.6375 15.1424 18 12 18ZM8.7501 8.75C8.34157 8.75 8.03977 9.03719 7.99202 9.35982C7.93136 9.76957 7.55003 10.0526 7.14028 9.99192C6.73053 9.93126 6.44753 9.54993 6.50818 9.14018C6.66963 8.0495 7.63128 7.25 8.7501 7.25C9.86892 7.25 10.8306 8.0495 10.992 9.14018C11.0527 9.54993 10.7697 9.93126 10.3599 9.99192C9.95017 10.0526 9.56884 9.76957 9.50818 9.35982C9.46043 9.03719 9.15863 8.75 8.7501 8.75Z" fill="#FFCC4D"/>
</g>
<defs>
<clipPath id="clip0_0_1">
<rect width="24" height="24" fill="white"/>
</clipPath>
</defs>
</svg>
